<svg width="1280" height="720" viewBox="0 0 1280 720" fill="none" xmlns="http://www.w3.org/2000/svg">
  <rect width="1280" height="720" rx="28" fill="#07111B"/>
  <rect x="36" y="36" width="1208" height="648" rx="24" fill="#0C1824" stroke="#1D3346"/>
  <rect x="68" y="78" width="228" height="564" rx="18" fill="#102231"/>
  <rect x="328" y="78" width="884" height="96" rx="18" fill="#112A3B"/>
  <rect x="328" y="198" width="512" height="444" rx="18" fill="#102231"/>
  <rect x="864" y="198" width="348" height="444" rx="18" fill="#112A3B"/>

  <text x="92" y="122" fill="#7FB7E8" font-family="Arial, sans-serif" font-size="18" font-weight="700">Trade Capture</text>
  <text x="352" y="122" fill="#D7E6F5" font-family="Arial, sans-serif" font-size="28" font-weight="700">Book, inspect, and amend trades</text>
  <text x="352" y="148" fill="#84A3BE" font-family="Arial, sans-serif" font-size="15">Blotter and ticket entry stay side by side so you can verify the current state before changing it.</text>

  <rect x="94" y="164" width="176" height="14" rx="7" fill="#19374B"/>
  <rect x="94" y="198" width="176" height="56" rx="14" fill="#163245"/>
  <rect x="94" y="270" width="176" height="56" rx="14" fill="#163245"/>
  <rect x="94" y="342" width="176" height="56" rx="14" fill="#163245"/>
  <rect x="94" y="414" width="176" height="56" rx="14" fill="#163245"/>
  <rect x="94" y="486" width="176" height="56" rx="14" fill="#163245"/>

  <text x="354" y="228" fill="#7FB7E8" font-family="Arial, sans-serif" font-size="17" font-weight="700">Live blotter</text>
  <rect x="354" y="248" width="460" height="42" rx="10" fill="#163245"/>
  <rect x="354" y="302" width="460" height="42" rx="10" fill="#153649"/>
  <rect x="354" y="356" width="460" height="42" rx="10" fill="#163245"/>
  <rect x="354" y="410" width="460" height="42" rx="10" fill="#163245"/>
  <rect x="354" y="464" width="460" height="42" rx="10" fill="#163245"/>
  <rect x="354" y="518" width="460" height="42" rx="10" fill="#163245"/>

  <text x="890" y="228" fill="#7FB7E8" font-family="Arial, sans-serif" font-size="17" font-weight="700">Ticket and inspector</text>
  <rect x="890" y="252" width="144" height="18" rx="9" fill="#26A17B"/>
  <rect x="890" y="288" width="296" height="52" rx="12" fill="#17384C"/>
  <rect x="890" y="354" width="296" height="52" rx="12" fill="#17384C"/>
  <rect x="890" y="420" width="296" height="52" rx="12" fill="#17384C"/>
  <rect x="890" y="486" width="296" height="52" rx="12" fill="#17384C"/>
  <rect x="890" y="566" width="140" height="34" rx="17" fill="#26A17B"/>
  <rect x="1046" y="566" width="140" height="34" rx="17" fill="#1B3345"/>

  <circle cx="270" cy="224" r="22" fill="#26A17B"/>
  <text x="262" y="231" fill="#07111B" font-family="Arial, sans-serif" font-size="18" font-weight="700">1</text>
  <path d="M292 224H334" stroke="#26A17B" stroke-width="4" stroke-linecap="round"/>
  <text x="344" y="214" fill="#E7F1FA" font-family="Arial, sans-serif" font-size="18" font-weight="700">Choose the trade from the blotter first</text>
  <text x="344" y="238" fill="#8BA8C2" font-family="Arial, sans-serif" font-size="15">Use the row list to anchor the ticket to the exact trade you want to inspect or amend.</text>

  <circle cx="842" cy="388" r="22" fill="#4EA7FF"/>
  <text x="834" y="395" fill="#07111B" font-family="Arial, sans-serif" font-size="18" font-weight="700">2</text>
  <path d="M864 388H904" stroke="#4EA7FF" stroke-width="4" stroke-linecap="round"/>
  <text x="914" y="378" fill="#E7F1FA" font-family="Arial, sans-serif" font-size="18" font-weight="700">Use the ticket to confirm economics</text>
  <text x="914" y="402" fill="#8BA8C2" font-family="Arial, sans-serif" font-size="15">Counterparty, pricing status, dates, and legs all live here before you save a change.</text>

  <circle cx="1038" cy="584" r="22" fill="#F2B84B"/>
  <text x="1030" y="591" fill="#07111B" font-family="Arial, sans-serif" font-size="18" font-weight="700">3</text>
  <path d="M1060 584H1120" stroke="#F2B84B" stroke-width="4" stroke-linecap="round"/>
  <text x="912" y="636" fill="#E7F1FA" font-family="Arial, sans-serif" font-size="18" font-weight="700">Save or pivot into follow-up tabs</text>
  <text x="912" y="660" fill="#8BA8C2" font-family="Arial, sans-serif" font-size="15">Once the trade looks right, amend it, review events, or hand the issue into downstream work.</text>
</svg>
